{
    "asset" : {
        "generator" : "Khronos glTF Blender I/O v1.3.48",
        "version" : "2.0"
    },
    "scene" : 0,
    "scenes" : [
        {
            "name" : "Scene",
            "nodes" : [
                0
            ]
        }
    ],
    "nodes" : [
        {
            "mesh" : 0,
            "name" : "Chess_Bishop.001",
            "scale" : [
                0.38263124227523804,
                0.38263124227523804,
                0.38263124227523804
            ],
            "translation" : [
                0,
                1.116852045059204,
                0
            ]
        }
    ],
    "meshes" : [
        {
            "name" : "Chess_Bishop.001",
            "primitives" : [
                {
                    "attributes" : {
                        "POSITION" : 0,
                        "NORMAL" : 1
                    },
                    "indices" : 2
                }
            ]
        }
    ],
    "accessors" : [
        {
            "bufferView" : 0,
            "componentType" : 5126,
            "count" : 766,
            "max" : [
                1.968848466873169,
                5.044951438903809,
                1.9627859592437744
            ],
            "min" : [
                -1.9566447734832764,
                -2.832489490509033,
                -1.9627074003219604
            ],
            "type" : "VEC3"
        },
        {
            "bufferView" : 1,
            "componentType" : 5126,
            "count" : 766,
            "type" : "VEC3"
        },
        {
            "bufferView" : 2,
            "componentType" : 5123,
            "count" : 1134,
            "type" : "SCALAR"
        }
    ],
    "bufferViews" : [
        {
            "buffer" : 0,
            "byteLength" : 9192,
            "byteOffset" : 0
        },
        {
            "buffer" : 0,
            "byteLength" : 9192,
            "byteOffset" : 9192
        },
        {
            "buffer" : 0,
            "byteLength" : 2268,
            "byteOffset" : 18384
        }
    ],
    "buffers" : [
        {
            "byteLength" : 20652,
            "uri" : "bishop.bin"
        }
    ]
}
