{
    "asset" : {
        "generator" : "Khronos glTF Blender I/O v1.7.33",
        "version" : "2.0"
    },
    "scene" : 0,
    "scenes" : [
        {
            "name" : "Scene",
            "nodes" : [
                0
            ]
        }
    ],
    "nodes" : [
        {
            "mesh" : 0,
            "name" : "b",
            "scale" : [
                0.38263124227523804,
                0.38263124227523804,
                0.38263124227523804
            ]
        }
    ],
    "meshes" : [
        {
            "name" : "b",
            "primitives" : [
                {
                    "attributes" : {
                        "POSITION" : 0,
                        "NORMAL" : 1
                    },
                    "indices" : 2
                }
            ]
        }
    ],
    "accessors" : [
        {
            "bufferView" : 0,
            "componentType" : 5126,
            "count" : 1097,
            "max" : [
                1.968848466873169,
                7.8952155113220215,
                1.9627859592437744
            ],
            "min" : [
                -1.9566447734832764,
                0.017774559557437897,
                -1.9627074003219604
            ],
            "type" : "VEC3"
        },
        {
            "bufferView" : 1,
            "componentType" : 5126,
            "count" : 1097,
            "type" : "VEC3"
        },
        {
            "bufferView" : 2,
            "componentType" : 5123,
            "count" : 1134,
            "type" : "SCALAR"
        }
    ],
    "bufferViews" : [
        {
            "buffer" : 0,
            "byteLength" : 13164,
            "byteOffset" : 0
        },
        {
            "buffer" : 0,
            "byteLength" : 13164,
            "byteOffset" : 13164
        },
        {
            "buffer" : 0,
            "byteLength" : 2268,
            "byteOffset" : 26328
        }
    ],
    "buffers" : [
        {
            "byteLength" : 28596,
            "uri" : "bishop.bin"
        }
    ]
}
