{
    "asset" : {
        "generator" : "Khronos glTF Blender I/O v1.7.33",
        "version" : "2.0"
    },
    "scene" : 0,
    "scenes" : [
        {
            "name" : "Scene",
            "nodes" : [
                0
            ]
        }
    ],
    "nodes" : [
        {
            "mesh" : 0,
            "name" : "k",
            "rotation" : [
                0,
                -0.18881107866764069,
                0,
                0.9820134043693542
            ],
            "scale" : [
                0.3707204759120941,
                0.3707204759120941,
                0.3707204759120941
            ]
        }
    ],
    "meshes" : [
        {
            "name" : "k",
            "primitives" : [
                {
                    "attributes" : {
                        "POSITION" : 0,
                        "NORMAL" : 1
                    },
                    "indices" : 2
                }
            ]
        }
    ],
    "accessors" : [
        {
            "bufferView" : 0,
            "componentType" : 5126,
            "count" : 1466,
            "max" : [
                2.1092917919158936,
                9.733546257019043,
                2.1092920303344727
            ],
            "min" : [
                -2.1092915534973145,
                0.0015799663960933685,
                -2.1092915534973145
            ],
            "type" : "VEC3"
        },
        {
            "bufferView" : 1,
            "componentType" : 5126,
            "count" : 1466,
            "type" : "VEC3"
        },
        {
            "bufferView" : 2,
            "componentType" : 5123,
            "count" : 1500,
            "type" : "SCALAR"
        }
    ],
    "bufferViews" : [
        {
            "buffer" : 0,
            "byteLength" : 17592,
            "byteOffset" : 0
        },
        {
            "buffer" : 0,
            "byteLength" : 17592,
            "byteOffset" : 17592
        },
        {
            "buffer" : 0,
            "byteLength" : 3000,
            "byteOffset" : 35184
        }
    ],
    "buffers" : [
        {
            "byteLength" : 38184,
            "uri" : "king.bin"
        }
    ]
}
