{
    "asset" : {
        "generator" : "Khronos glTF Blender I/O v1.3.48",
        "version" : "2.0"
    },
    "scene" : 0,
    "scenes" : [
        {
            "name" : "Scene",
            "nodes" : [
                0
            ]
        }
    ],
    "nodes" : [
        {
            "mesh" : 0,
            "name" : "Chess_Queen",
            "scale" : [
                0.4031480848789215,
                0.4031480848789215,
                0.4031480848789215
            ],
            "translation" : [
                0,
                1.2713786363601685,
                0
            ]
        }
    ],
    "meshes" : [
        {
            "name" : "Chess_Queen",
            "primitives" : [
                {
                    "attributes" : {
                        "POSITION" : 0,
                        "NORMAL" : 1
                    },
                    "indices" : 2
                }
            ]
        }
    ],
    "accessors" : [
        {
            "bufferView" : 0,
            "componentType" : 5126,
            "count" : 928,
            "max" : [
                2.208089828491211,
                5.281841278076172,
                2.208090305328369
            ],
            "min" : [
                -2.208089828491211,
                -3.1525819301605225,
                -2.208089828491211
            ],
            "type" : "VEC3"
        },
        {
            "bufferView" : 1,
            "componentType" : 5126,
            "count" : 928,
            "type" : "VEC3"
        },
        {
            "bufferView" : 2,
            "componentType" : 5123,
            "count" : 1338,
            "type" : "SCALAR"
        }
    ],
    "bufferViews" : [
        {
            "buffer" : 0,
            "byteLength" : 11136,
            "byteOffset" : 0
        },
        {
            "buffer" : 0,
            "byteLength" : 11136,
            "byteOffset" : 11136
        },
        {
            "buffer" : 0,
            "byteLength" : 2676,
            "byteOffset" : 22272
        }
    ],
    "buffers" : [
        {
            "byteLength" : 24948,
            "uri" : "queen.bin"
        }
    ]
}
