{
    "asset" : {
        "generator" : "Khronos glTF Blender I/O v1.7.33",
        "version" : "2.0"
    },
    "scene" : 0,
    "scenes" : [
        {
            "name" : "Scene",
            "nodes" : [
                0
            ]
        }
    ],
    "nodes" : [
        {
            "mesh" : 0,
            "name" : "q",
            "scale" : [
                0.4031480848789215,
                0.4031480848789215,
                0.4031480848789215
            ]
        }
    ],
    "meshes" : [
        {
            "name" : "q",
            "primitives" : [
                {
                    "attributes" : {
                        "POSITION" : 0,
                        "NORMAL" : 1
                    },
                    "indices" : 2
                }
            ]
        }
    ],
    "accessors" : [
        {
            "bufferView" : 0,
            "componentType" : 5126,
            "count" : 1313,
            "max" : [
                2.208089828491211,
                8.435468673706055,
                2.208090305328369
            ],
            "min" : [
                -2.208089828491211,
                0.0010449886322021484,
                -2.208089828491211
            ],
            "type" : "VEC3"
        },
        {
            "bufferView" : 1,
            "componentType" : 5126,
            "count" : 1313,
            "type" : "VEC3"
        },
        {
            "bufferView" : 2,
            "componentType" : 5123,
            "count" : 1338,
            "type" : "SCALAR"
        }
    ],
    "bufferViews" : [
        {
            "buffer" : 0,
            "byteLength" : 15756,
            "byteOffset" : 0
        },
        {
            "buffer" : 0,
            "byteLength" : 15756,
            "byteOffset" : 15756
        },
        {
            "buffer" : 0,
            "byteLength" : 2676,
            "byteOffset" : 31512
        }
    ],
    "buffers" : [
        {
            "byteLength" : 34188,
            "uri" : "queen.bin"
        }
    ]
}
