{
    "asset" : {
        "generator" : "Khronos glTF Blender I/O v1.7.33",
        "version" : "2.0"
    },
    "scene" : 0,
    "scenes" : [
        {
            "name" : "Scene",
            "nodes" : [
                0
            ]
        }
    ],
    "nodes" : [
        {
            "mesh" : 0,
            "name" : "r",
            "scale" : [
                0.3461514115333557,
                0.3461514115333557,
                0.3461514115333557
            ]
        }
    ],
    "meshes" : [
        {
            "name" : "r",
            "primitives" : [
                {
                    "attributes" : {
                        "POSITION" : 0,
                        "NORMAL" : 1
                    },
                    "indices" : 2
                }
            ]
        }
    ],
    "accessors" : [
        {
            "bufferView" : 0,
            "componentType" : 5126,
            "count" : 684,
            "max" : [
                1.9627466201782227,
                5.80546760559082,
                1.9627469778060913
            ],
            "min" : [
                -1.9627466201782227,
                0.009922266006469727,
                -1.9627463817596436
            ],
            "type" : "VEC3"
        },
        {
            "bufferView" : 1,
            "componentType" : 5126,
            "count" : 684,
            "type" : "VEC3"
        },
        {
            "bufferView" : 2,
            "componentType" : 5123,
            "count" : 708,
            "type" : "SCALAR"
        }
    ],
    "bufferViews" : [
        {
            "buffer" : 0,
            "byteLength" : 8208,
            "byteOffset" : 0
        },
        {
            "buffer" : 0,
            "byteLength" : 8208,
            "byteOffset" : 8208
        },
        {
            "buffer" : 0,
            "byteLength" : 1416,
            "byteOffset" : 16416
        }
    ],
    "buffers" : [
        {
            "byteLength" : 17832,
            "uri" : "rook.bin"
        }
    ]
}
